<svg width="1479" height="279" viewBox="0 0 1479 279" fill="none" xmlns="http://www.w3.org/2000/svg">
<path d="M621.999 279H575.052L335.997 47.7097L101.297 279H58.7221L340.352 0L621.999 279Z" fill="#121959"/>
<path d="M58.9209 279H1.13861L340.551 0L58.9209 279Z" fill="url(#paint0_linear_1_221)"/>
<path d="M337.723 129.677H290.445V182.206H337.723V129.677Z" fill="#666CA9"/>
<path d="M392.159 129.677H344.881V182.206H392.159V129.677Z" fill="#666CA9"/>
<path d="M392.159 188.961H344.881V241.49H392.159V188.961Z" fill="#666CA9"/>
<path d="M337.723 188.961H290.445V241.49H337.723V188.961Z" fill="#666CA9"/>
<path d="M574.386 75C595.096 75 611.886 58.2107 611.886 37.5C611.886 16.7893 595.096 0 574.386 0C553.675 0 536.886 16.7893 536.886 37.5C536.886 58.2107 553.675 75 574.386 75Z" fill="#666CA9"/>
<path d="M761.381 189.863L816.204 58.1017H818.062L873.071 189.863H847.797L840.549 171.093H794.275L787.398 189.863H761.381ZM813.974 117.757L800.965 153.066H833.673L820.106 117.757L816.947 107.35L813.974 117.757Z" fill="#0E1345"/>
<path d="M883.744 230.376V97.3141H905.859V100.288L904.001 113.296C904.744 109.765 906.416 106.606 909.018 103.819C911.682 101.031 914.903 98.8628 918.682 97.3141C922.523 95.7035 926.549 94.8982 930.762 94.8982C943.027 94.8982 951.978 99.2035 957.616 107.814C963.253 116.363 966.071 127.854 966.071 142.288C966.071 158.456 962.633 170.876 955.757 179.549C948.943 188.159 939.992 192.465 928.903 192.465C922.027 192.465 916.514 190.327 912.363 186.053C908.275 181.779 905.487 176.916 904.001 171.465L906.231 188.934V230.376H883.744ZM923.514 174.066C926.487 174.066 929.368 173.075 932.155 171.093C934.943 169.049 937.235 165.766 939.032 161.243C940.828 156.721 941.726 150.712 941.726 143.217C941.726 132.81 939.93 125.314 936.337 120.73C932.806 116.146 928.655 113.854 923.885 113.854C918.124 113.854 913.726 116.827 910.691 122.774C907.717 128.659 906.231 135.969 906.231 144.704C906.231 153.438 907.748 160.531 910.784 165.982C913.881 171.372 918.124 174.066 923.514 174.066Z" fill="#0E1345"/>
<path d="M1005.22 192.465C999.522 192.465 994.783 191.195 991.005 188.655C987.288 186.115 984.5 182.739 982.642 178.527C980.845 174.314 979.947 169.668 979.947 164.589C979.947 161.739 980.659 158.611 982.084 155.204C983.571 151.796 986.173 148.544 989.889 145.447C993.606 142.35 998.841 139.81 1005.59 137.827C1012.35 135.845 1021.02 134.854 1031.61 134.854V130.58C1031.61 125.996 1030.5 122.186 1028.27 119.15C1026.1 116.115 1021.7 114.597 1015.07 114.597C1010.24 114.597 1005.5 115.434 1000.85 117.106C996.27 118.717 992.894 120.73 990.726 123.146L983.292 105.305C987.009 102.765 991.965 100.442 998.159 98.3362C1004.42 96.1681 1011.35 95.084 1018.97 95.084C1028.14 95.084 1035.27 96.4778 1040.35 99.2655C1045.42 102.053 1048.99 106.018 1051.03 111.159C1053.08 116.239 1054.1 122.217 1054.1 129.093V189.863H1034.21L1032.54 176.668C1026.1 187.199 1016.99 192.465 1005.22 192.465ZM1015.07 174.624C1017.86 174.624 1020.83 173.509 1023.99 171.279C1027.21 168.987 1029.75 166.075 1031.61 162.544V149.35C1030.99 149.226 1030.31 149.164 1029.57 149.164C1028.89 149.164 1028.08 149.164 1027.15 149.164C1023.74 149.164 1020.15 149.566 1016.37 150.372C1012.66 151.115 1009.5 152.447 1006.89 154.367C1004.29 156.288 1002.99 158.951 1002.99 162.358C1002.99 166.819 1003.98 169.978 1005.96 171.836C1007.95 173.695 1010.98 174.624 1015.07 174.624Z" fill="#0E1345"/>
<path d="M1074.82 189.863V97.3141H1095.82L1096.93 113.668C1097.92 111.252 1099.44 108.681 1101.49 105.956C1103.59 103.23 1106.47 100.938 1110.13 99.0796C1113.84 97.1593 1118.61 96.1991 1124.44 96.1991C1126.23 96.1991 1127.81 96.323 1129.18 96.5708C1130.54 96.8185 1131.81 97.1902 1132.99 97.6858L1127.78 122.031C1125.8 120.049 1122.76 119.058 1118.68 119.058C1113.91 119.058 1110 120.049 1106.97 122.031C1103.93 123.951 1101.67 126.119 1100.18 128.535C1098.76 130.951 1098.05 132.81 1098.05 134.111V189.863H1074.82Z" fill="#0E1345"/>
<path d="M1178.64 192.65C1168.17 192.65 1161.08 189.925 1157.36 184.473C1153.7 179.022 1151.88 170.783 1151.88 159.757V116.827H1139.8V97.3141H1152.81L1154.11 77.8008L1174.36 69.0663V97.3141H1197.22V116.827H1174.36V159.199C1174.36 164.589 1175.11 168.336 1176.59 170.443C1178.14 172.487 1180.25 173.509 1182.91 173.509C1185.64 173.509 1188.52 172.796 1191.55 171.372C1194.59 169.947 1196.97 168.491 1198.71 167.004L1203.17 185.774C1201.25 187.137 1198.74 188.345 1195.64 189.398C1192.61 190.389 1189.51 191.164 1186.35 191.721C1183.25 192.341 1180.68 192.65 1178.64 192.65Z" fill="#0E1345"/>
<path d="M1255.21 192.279C1244.8 192.279 1236.41 190.111 1230.03 185.774C1223.65 181.376 1219 175.584 1216.09 168.398C1213.18 161.15 1211.72 153.252 1211.72 144.704C1211.72 135.721 1213.36 127.482 1216.65 119.987C1219.99 112.429 1224.85 106.389 1231.23 101.867C1237.68 97.3451 1245.54 95.084 1254.84 95.084C1268.71 95.084 1278.41 99.1106 1283.92 107.164C1289.43 115.155 1292.19 126.491 1292.19 141.173C1292.19 142.473 1292.16 144.115 1292.1 146.097C1292.04 148.08 1291.94 149.783 1291.82 151.208H1236.07C1236.44 158.518 1238.48 164.248 1242.2 168.398C1245.98 172.549 1251.61 174.624 1259.11 174.624C1262.95 174.624 1267.07 173.788 1271.47 172.115C1275.87 170.381 1279.12 168.305 1281.23 165.889L1288.66 183.544C1286.18 185.217 1282.25 187.106 1276.86 189.212C1271.53 191.257 1264.31 192.279 1255.21 192.279ZM1235.88 136.712H1268.59C1268.59 130.208 1268 125.252 1266.82 121.845C1265.71 118.376 1264.16 115.991 1262.18 114.69C1260.19 113.389 1257.93 112.739 1255.39 112.739C1249.08 112.739 1244.34 115.093 1241.18 119.801C1238.02 124.447 1236.25 130.084 1235.88 136.712Z" fill="#0E1345"/>
<path d="M1310.96 189.863V48.6238H1333.63V189.863H1310.96Z" fill="#0E1345"/>
<path d="M1356.33 189.863V48.6238H1379V189.863H1356.33Z" fill="#0E1345"/>
<path d="M1441.23 192.279C1430.82 192.279 1422.43 190.111 1416.05 185.774C1409.67 181.376 1405.02 175.584 1402.11 168.398C1399.2 161.15 1397.74 153.252 1397.74 144.704C1397.74 135.721 1399.39 127.482 1402.67 119.987C1406.01 112.429 1410.88 106.389 1417.26 101.867C1423.7 97.3451 1431.57 95.084 1440.86 95.084C1454.73 95.084 1464.43 99.1106 1469.94 107.164C1475.46 115.155 1478.21 126.491 1478.21 141.173C1478.21 142.473 1478.18 144.115 1478.12 146.097C1478.06 148.08 1477.96 149.783 1477.84 151.208H1422.09C1422.46 158.518 1424.5 164.248 1428.22 168.398C1432 172.549 1437.64 174.624 1445.13 174.624C1448.97 174.624 1453.09 173.788 1457.49 172.115C1461.89 170.381 1465.14 168.305 1467.25 165.889L1474.68 183.544C1472.2 185.217 1468.27 187.106 1462.88 189.212C1457.55 191.257 1450.34 192.279 1441.23 192.279ZM1421.9 136.712H1454.61C1454.61 130.208 1454.02 125.252 1452.85 121.845C1451.73 118.376 1450.18 115.991 1448.2 114.69C1446.22 113.389 1443.96 112.739 1441.42 112.739C1435.1 112.739 1430.36 115.093 1427.2 119.801C1424.04 124.447 1422.27 130.084 1421.9 136.712Z" fill="#0E1345"/>
<defs>
<linearGradient id="paint0_linear_1_221" x1="300.049" y1="58.4323" x2="-11.2734" y2="262.244" gradientUnits="userSpaceOnUse">
<stop stop-color="#B8BBD7"/>
<stop offset="0.17" stop-color="#B8BBD7"/>
<stop offset="0.57" stop-color="#666CA9"/>
<stop offset="0.85" stop-color="#1A237E"/>
<stop offset="1" stop-color="#182073"/>
</linearGradient>
</defs>
</svg>
